<?xml version="1.0" encoding="UTF-8" standalone="no"?>
<svg
   xmlns:dc="http://purl.org/dc/elements/1.1/"
   xmlns:cc="http://creativecommons.org/ns#"
   xmlns:rdf="http://www.w3.org/1999/02/22-rdf-syntax-ns#"
   xmlns:svg="http://www.w3.org/2000/svg"
   xmlns="http://www.w3.org/2000/svg"
   id="svg4"
   version="1.1"
   height="16"
   width="16">
  <metadata
     id="metadata10">
    <rdf:RDF>
      <cc:Work
         rdf:about="">
        <dc:format>image/svg+xml</dc:format>
        <dc:type
           rdf:resource="http://purl.org/dc/dcmitype/StillImage" />
        <dc:title></dc:title>
      </cc:Work>
    </rdf:RDF>
  </metadata>
  <defs
     id="defs8" />
  <path
     id="path2"
     d="M 2 0 C 0.892 0 0 0.892 0 2 L 0 3 L 0 11 L 0 14 C 0 15.108 0.892 16 2 16 L 10 16 L 10 14 L 2 14 L 2 11 L 4 11 L 4 10 L 2 10 L 2 8 L 3 8 L 3 7 L 2 7 L 2 5 L 3 5 L 3 4 L 2 4 L 2 3 L 2 2 L 14 2 L 14 4 L 13 4 L 13 5 L 14 5 L 14 7 L 13 7 L 13 8 L 14 8 L 14 10 L 16 10 L 16 5 L 16 2 C 16 0.892 15.108 0 14 0 L 2 0 z M 8 3 C 7.446 3 7 3.446 7 4 L 7 6 C 7 6.554 7.446 7 8 7 C 8.554 7 9 6.554 9 6 L 9 4 C 9 3.446 8.554 3 8 3 z M 6 3.5410156 A 4 4 0 0 0 4 7 A 4 4 0 0 0 8 11 A 4 4 0 0 0 12 7 A 4 4 0 0 0 10 3.5410156 L 10 4.7753906 C 10.610104 5.3237849 11 6.111297 11 7 C 11 8.662 9.662 10 8 10 C 6.338 10 5 8.662 5 7 C 5 6.111297 5.3898959 5.3237849 6 4.7753906 L 6 3.5410156 z M 11 11 L 11 16 L 16 16 L 16 11 L 11 11 z M 3.5 12 C 3.223 12 3 12.223 3 12.5 C 3 12.777 3.223 13 3.5 13 C 3.777 13 4 12.777 4 12.5 C 4 12.223 3.777 12 3.5 12 z M 5.5 12 C 5.223 12 5 12.223 5 12.5 C 5 12.777 5.223 13 5.5 13 C 5.777 13 6 12.777 6 12.5 C 6 12.223 5.777 12 5.5 12 z M 7.5 12 C 7.223 12 7 12.223 7 12.5 C 7 12.777 7.223 13 7.5 13 L 9.5 13 C 9.777 13 10 12.777 10 12.5 C 10 12.223 9.777 12 9.5 12 L 7.5 12 z M 12 12 L 13 12 L 13 13 L 14 13 L 14 12 L 15 12 L 15 14 L 14 14 L 14 15 L 13 15 L 13 14 L 12 14 L 12 12 z "
     style="fill:#c0bfbc" />
</svg>
