<?xml version="1.0" encoding="UTF-8"?>
<svg version="1.1" viewBox="0 0 128 128" xmlns="http://www.w3.org/2000/svg" xmlns:xlink="http://www.w3.org/1999/xlink">
<defs>
<linearGradient id="a" x1="2" x2="30" y1="27" y2="27" gradientTransform="translate(0,-1)" gradientUnits="userSpaceOnUse">
<stop stop-color="#5e5c64" offset="0"/>
<stop stop-color="#9a9996" offset=".035714"/>
<stop stop-color="#5e5c64" offset=".071429"/>
<stop stop-color="#5e5c64" offset=".92857"/>
<stop stop-color="#9a9996" offset=".96429"/>
<stop stop-color="#5e5c64" offset="1"/>
</linearGradient>
</defs>
<g transform="matrix(.5 0 0 .5 0 103.5)">
<g transform="matrix(8,0,0,8,0,-207)">
<rect x="2" y="6" width="28" height="6" ry="1" fill="#5e5c64"/>
<rect x="2" y="12" width="28" height="6" ry="1" fill="#5e5c64"/>
<rect x="2" y="18" width="28" height="6" ry="1.0587" fill="#5e5c64"/>
<rect x="2" y="23" width="28" height="5" ry="1" fill="url(#a)"/>
<rect x="2" y="3" width="28" height="5" ry="1" fill="#9a9996"/>
<rect x="2" y="9" width="28" height="5" ry="1" fill="#9a9996"/>
<rect x="2" y="15" width="28" height="5" ry="1" fill="#9a9996"/>
<rect x="2" y="21" width="28" height="5" ry="1" fill="#9a9996"/>
<rect x="14" y="4" width="15" height="3" ry="0" fill="#3d3846"/>
<rect x="14" y="5" width="15" height="2" ry="0" fill="#5e5c64"/>
<rect x="14" y="10" width="15" height="3" ry="0" fill="#3d3846"/>
<rect x="14" y="11" width="15" height="2" ry="0" fill="#5e5c64"/>
<rect x="14" y="16" width="15" height="3" ry="0" fill="#3d3846"/>
<rect x="14" y="17" width="15" height="2" ry="0" fill="#5e5c64"/>
<rect x="14" y="22" width="15" height="3" ry="0" fill="#3d3846"/>
<rect x="14" y="23" width="15" height="2" ry="0" fill="#5e5c64"/>
<rect x="4" y="4" width="1" height="2" ry=".5" fill="#5e5c64"/>
<rect x="4" y="5" width="1" height="1" ry=".5" fill="#f6d32d"/>
<rect x="6" y="4" width="1" height="2" ry=".5" fill="#5e5c64"/>
<rect x="6" y="5" width="1" height="1" ry=".5" fill="#33d17a"/>
<rect x="4" y="10" width="1" height="2" ry=".5" fill="#5e5c64"/>
<rect x="4" y="11" width="1" height="1" ry=".5" fill="#33d17a"/>
<rect x="6" y="10" width="1" height="2" ry=".5" fill="#5e5c64"/>
<rect x="6" y="11" width="1" height="1" ry=".5" fill="#e01b24"/>
<rect x="4" y="16" width="1" height="2" ry=".5" fill="#5e5c64"/>
<rect x="4" y="17" width="1" height="1" ry=".5" fill="#e01b24"/>
<rect x="6" y="16" width="1" height="2" ry=".5" fill="#5e5c64"/>
<rect x="6" y="17" width="1" height="1" ry=".5" fill="#f6d32d"/>
<rect x="4" y="22" width="1" height="2" ry=".5" fill="#5e5c64"/>
<rect x="4" y="23" width="1" height="1" ry=".5" fill="#f6d32d"/>
<rect x="6" y="22" width="1" height="2" ry=".5" fill="#5e5c64"/>
<rect x="6" y="23" width="1" height="1" ry=".5" fill="#33d17a"/>
<rect x="15" y="11" width="1" height="2" fill="#3d3846"/>
<rect x="15" y="10" width="1" height="1" fill="#241f31"/>
<rect x="17" y="11" width="1" height="2" fill="#3d3846"/>
<rect x="17" y="10" width="1" height="1" fill="#241f31"/>
<rect x="19" y="11" width="1" height="2" fill="#3d3846"/>
<rect x="19" y="10" width="1" height="1" fill="#241f31"/>
<rect x="21" y="11" width="1" height="2" fill="#3d3846"/>
<rect x="21" y="10" width="1" height="1" fill="#241f31"/>
<rect x="23" y="11" width="1" height="2" fill="#3d3846"/>
<rect x="23" y="10" width="1" height="1" fill="#241f31"/>
<rect x="25" y="11" width="1" height="2" fill="#3d3846"/>
<rect x="25" y="10" width="1" height="1" fill="#241f31"/>
<rect x="27" y="11" width="1" height="2" fill="#3d3846"/>
<rect x="27" y="10" width="1" height="1" fill="#241f31"/>
<rect x="15" y="5" width="1" height="2" fill="#3d3846"/>
<rect x="15" y="4" width="1" height="1" fill="#241f31"/>
<rect x="17" y="5" width="1" height="2" fill="#3d3846"/>
<rect x="17" y="4" width="1" height="1" fill="#241f31"/>
<rect x="19" y="5" width="1" height="2" fill="#3d3846"/>
<rect x="19" y="4" width="1" height="1" fill="#241f31"/>
<rect x="21" y="5" width="1" height="2" fill="#3d3846"/>
<rect x="21" y="4" width="1" height="1" fill="#241f31"/>
<rect x="23" y="5" width="1" height="2" fill="#3d3846"/>
<rect x="23" y="4" width="1" height="1" fill="#241f31"/>
<rect x="25" y="5" width="1" height="2" fill="#3d3846"/>
<rect x="25" y="4" width="1" height="1" fill="#241f31"/>
<rect x="27" y="5" width="1" height="2" fill="#3d3846"/>
<rect x="27" y="4" width="1" height="1" fill="#241f31"/>
<rect x="15" y="17" width="1" height="2" fill="#3d3846"/>
<rect x="15" y="16" width="1" height="1" fill="#241f31"/>
<rect x="17" y="17" width="1" height="2" fill="#3d3846"/>
<rect x="17" y="16" width="1" height="1" fill="#241f31"/>
<rect x="19" y="17" width="1" height="2" fill="#3d3846"/>
<rect x="19" y="16" width="1" height="1" fill="#241f31"/>
<rect x="21" y="17" width="1" height="2" fill="#3d3846"/>
<rect x="21" y="16" width="1" height="1" fill="#241f31"/>
<rect x="23" y="17" width="1" height="2" fill="#3d3846"/>
<rect x="23" y="16" width="1" height="1" fill="#241f31"/>
<rect x="25" y="17" width="1" height="2" fill="#3d3846"/>
<rect x="25" y="16" width="1" height="1" fill="#241f31"/>
<rect x="27" y="17" width="1" height="2" fill="#3d3846"/>
<rect x="27" y="16" width="1" height="1" fill="#241f31"/>
<rect x="15" y="23" width="1" height="2" fill="#3d3846"/>
<rect x="15" y="22" width="1" height="1" fill="#241f31"/>
<rect x="17" y="23" width="1" height="2" fill="#3d3846"/>
<rect x="17" y="22" width="1" height="1" fill="#241f31"/>
<rect x="19" y="23" width="1" height="2" fill="#3d3846"/>
<rect x="19" y="22" width="1" height="1" fill="#241f31"/>
<rect x="21" y="23" width="1" height="2" fill="#3d3846"/>
<rect x="21" y="22" width="1" height="1" fill="#241f31"/>
<rect x="23" y="23" width="1" height="2" fill="#3d3846"/>
<rect x="23" y="22" width="1" height="1" fill="#241f31"/>
<rect x="25" y="23" width="1" height="2" fill="#3d3846"/>
<rect x="25" y="22" width="1" height="1" fill="#241f31"/>
<rect x="27" y="23" width="1" height="2" fill="#3d3846"/>
<rect x="27" y="22" width="1" height="1" fill="#241f31"/>
</g>
<path d="m128-143a64 64 0 0 0 -64 64 64 64 0 0 0 64 64 64 64 0 0 0 64 -64 64 64 0 0 0 -64 -64z" fill="#deddda"/>
<path transform="matrix(2,0,0,2,0,-207)" d="m64 28a32 32 0 0 0 -32 32 32 32 0 0 0 32 32 32 32 0 0 0 32 -32 32 32 0 0 0 -32 -32z" fill="#f6f5f4"/>
<path transform="matrix(2,0,0,2,0,-207)" d="m72 37.4v8.7598a16 16 0 0 1 8 13.84 16 16 0 0 1 -16 16 16 16 0 0 1 -16 -16 16 16 0 0 1 8 -13.834v-8.7617a24 24 0 0 0 -16 22.596 24 24 0 0 0 24 24 24 24 0 0 0 24 -24 24 24 0 0 0 -16 -22.6z" fill="#e01b24"/>
<rect x="120" y="-135" width="16" height="48" ry="8" fill="#e01b24"/>
</g>
</svg>
