<?xml version="1.0" encoding="UTF-8" standalone="no"?>
<svg
   xmlns:dc="http://purl.org/dc/elements/1.1/"
   xmlns:cc="http://creativecommons.org/ns#"
   xmlns:rdf="http://www.w3.org/1999/02/22-rdf-syntax-ns#"
   xmlns:svg="http://www.w3.org/2000/svg"
   xmlns="http://www.w3.org/2000/svg"
   xmlns:xlink="http://www.w3.org/1999/xlink"
   height="128"
   width="128"
   version="1.1"
   viewBox="0 0 128 128"
   id="svg36">
  <defs
     id="defs18">
    <linearGradient
       gradientTransform="matrix(3.9931545,0,0,4,0.027382,-147)"
       id="c"
       x1="4"
       x2="60"
       y1="19"
       y2="19"
       gradientUnits="userSpaceOnUse">
      <stop
         style="stop-color:#9a9996;stop-opacity:1"
         stop-color="#77767b"
         offset="0"
         id="stop2" />
      <stop
         style="stop-color:#9a9996;stop-opacity:1"
         stop-color="#77767b"
         offset=".10113"
         id="stop4" />
      <stop
         style="stop-color:#c0bfbc;stop-opacity:1"
         stop-color="#c0bfbc"
         offset=".17405"
         id="stop6" />
      <stop
         style="stop-color:#c0bfbc;stop-opacity:1"
         stop-color="#77767b"
         offset=".39765"
         id="stop8" />
      <stop
         style="stop-color:#9a9996;stop-opacity:1"
         stop-color="#77767b"
         offset="1"
         id="stop10" />
    </linearGradient>
    <linearGradient
       id="d"
       x1="32"
       x2="32"
       y1="-11"
       y2="45"
       gradientTransform="translate(0.096241)"
       gradientUnits="userSpaceOnUse">
      <stop
         stop-color="#c0bfbc"
         offset="0"
         id="stop13" />
      <stop
         stop-color="#deddda"
         offset="1"
         id="stop15" />
    </linearGradient>
    <linearGradient
       id="a"
       x1="2"
       x2="30"
       y1="27"
       y2="27"
       gradientTransform="translate(0,-1)"
       gradientUnits="userSpaceOnUse">
      <stop
         style="stop-color:#9a9996;stop-opacity:1"
         stop-color="#5e5c64"
         offset="0"
         id="stop976" />
      <stop
         style="stop-color:#f6f5f4;stop-opacity:1"
         stop-color="#9a9996"
         offset=".035714"
         id="stop978" />
      <stop
         style="stop-color:#9a9996;stop-opacity:1"
         stop-color="#5e5c64"
         offset=".071429"
         id="stop980" />
      <stop
         style="stop-color:#9a9996;stop-opacity:1"
         stop-color="#5e5c64"
         offset=".92857"
         id="stop982" />
      <stop
         style="stop-color:#f6f5f4;stop-opacity:1"
         stop-color="#9a9996"
         offset=".96429"
         id="stop984" />
      <stop
         style="stop-color:#c0bfbc;stop-opacity:1"
         stop-color="#5e5c64"
         offset="1"
         id="stop986" />
    </linearGradient>
    <linearGradient
       gradientUnits="userSpaceOnUse"
       y2="5"
       x2="224"
       y1="5"
       x1="32"
       id="linearGradient1608"
       xlink:href="#a" />
    <linearGradient
       gradientUnits="userSpaceOnUse"
       y2="-43"
       x2="224"
       y1="-43"
       x1="32"
       id="linearGradient1618"
       xlink:href="#d" />
    <linearGradient
       id="a-0"
       x1="2"
       x2="30"
       y1="27"
       y2="27"
       gradientTransform="translate(0,-1)"
       gradientUnits="userSpaceOnUse">
      <stop
         stop-color="#5e5c64"
         offset="0"
         id="stop1639" />
      <stop
         stop-color="#9a9996"
         offset=".035714"
         id="stop1641" />
      <stop
         stop-color="#5e5c64"
         offset=".071429"
         id="stop1643" />
      <stop
         stop-color="#5e5c64"
         offset=".92857"
         id="stop1645" />
      <stop
         stop-color="#9a9996"
         offset=".96429"
         id="stop1647" />
      <stop
         stop-color="#5e5c64"
         offset="1"
         id="stop1649" />
    </linearGradient>
  </defs>
  <metadata
     id="metadata20">
    <rdf:RDF>
      <cc:Work
         rdf:about="">
        <dc:format>image/svg+xml</dc:format>
        <dc:type
           rdf:resource="http://purl.org/dc/dcmitype/StillImage" />
        <dc:creator>
          <cc:Agent>
            <dc:title>Jakub Steiner</dc:title>
          </cc:Agent>
        </dc:creator>
        <dc:source>http://jimmac.musichall.cz</dc:source>
        <cc:license
           rdf:resource="http://creativecommons.org/licenses/by-sa/2.0/" />
        <dc:title></dc:title>
        <dc:subject>
          <rdf:Bag>
            <rdf:li>apparmor</rdf:li>
            <rdf:li>novell</rdf:li>
          </rdf:Bag>
        </dc:subject>
      </cc:Work>
      <cc:License
         rdf:about="http://creativecommons.org/licenses/by-sa/2.0/">
        <cc:permits
           rdf:resource="http://web.resource.org/cc/Reproduction" />
        <cc:permits
           rdf:resource="http://web.resource.org/cc/Distribution" />
        <cc:requires
           rdf:resource="http://web.resource.org/cc/Notice" />
        <cc:requires
           rdf:resource="http://web.resource.org/cc/Attribution" />
        <cc:permits
           rdf:resource="http://web.resource.org/cc/DerivativeWorks" />
        <cc:requires
           rdf:resource="http://web.resource.org/cc/ShareAlike" />
      </cc:License>
    </rdf:RDF>
  </metadata>
  <g
     transform="matrix(0.5,0,0,0.5,0,103.5)"
     id="g34">
    <g
       transform="matrix(8,0,0,8,0,-207)"
       id="g1931">
      <rect
         style="fill:#5e5c64"
         x="2"
         y="6"
         width="28"
         height="6"
         ry="1"
         id="rect1656" />
      <rect
         style="fill:#5e5c64"
         x="2"
         y="12"
         width="28"
         height="6"
         ry="1"
         id="rect1658" />
      <rect
         style="fill:#5e5c64"
         x="2"
         y="18"
         width="28"
         height="6"
         ry="1.0587"
         id="rect1660" />
      <rect
         x="2"
         y="23"
         width="28"
         height="5"
         ry="1"
         id="rect1662"
         style="fill:url(#a-0)" />
      <rect
         style="fill:#9a9996"
         x="2"
         y="3"
         width="28"
         height="5"
         ry="1"
         id="rect1664" />
      <rect
         style="fill:#9a9996"
         x="2"
         y="9"
         width="28"
         height="5"
         ry="1"
         id="rect1666" />
      <rect
         style="fill:#9a9996"
         x="2"
         y="15"
         width="28"
         height="5"
         ry="1"
         id="rect1668" />
      <rect
         style="fill:#9a9996"
         x="2"
         y="21"
         width="28"
         height="5"
         ry="1"
         id="rect1670" />
      <rect
         style="fill:#3d3846"
         x="14"
         y="4"
         width="15"
         height="3"
         ry="0"
         id="rect1672" />
      <rect
         style="fill:#5e5c64"
         x="14"
         y="5"
         width="15"
         height="2"
         ry="0"
         id="rect1674" />
      <rect
         style="fill:#3d3846"
         x="14"
         y="10"
         width="15"
         height="3"
         ry="0"
         id="rect1676" />
      <rect
         style="fill:#5e5c64"
         x="14"
         y="11"
         width="15"
         height="2"
         ry="0"
         id="rect1678" />
      <rect
         style="fill:#3d3846"
         x="14"
         y="16"
         width="15"
         height="3"
         ry="0"
         id="rect1680" />
      <rect
         style="fill:#5e5c64"
         x="14"
         y="17"
         width="15"
         height="2"
         ry="0"
         id="rect1682" />
      <rect
         style="fill:#3d3846"
         x="14"
         y="22"
         width="15"
         height="3"
         ry="0"
         id="rect1684" />
      <rect
         style="fill:#5e5c64"
         x="14"
         y="23"
         width="15"
         height="2"
         ry="0"
         id="rect1686" />
      <rect
         style="fill:#5e5c64"
         x="4"
         y="4"
         width="1"
         height="2"
         ry="0.5"
         id="rect1688" />
      <rect
         style="fill:#f6d32d"
         x="4"
         y="5"
         width="1"
         height="1"
         ry="0.5"
         id="rect1690" />
      <rect
         style="fill:#5e5c64"
         x="6"
         y="4"
         width="1"
         height="2"
         ry="0.5"
         id="rect1692" />
      <rect
         style="fill:#33d17a"
         x="6"
         y="5"
         width="1"
         height="1"
         ry="0.5"
         id="rect1694" />
      <rect
         style="fill:#5e5c64"
         x="4"
         y="10"
         width="1"
         height="2"
         ry="0.5"
         id="rect1696" />
      <rect
         style="fill:#33d17a"
         x="4"
         y="11"
         width="1"
         height="1"
         ry="0.5"
         id="rect1698" />
      <rect
         style="fill:#5e5c64"
         x="6"
         y="10"
         width="1"
         height="2"
         ry="0.5"
         id="rect1700" />
      <rect
         style="fill:#e01b24"
         x="6"
         y="11"
         width="1"
         height="1"
         ry="0.5"
         id="rect1702" />
      <rect
         style="fill:#5e5c64"
         x="4"
         y="16"
         width="1"
         height="2"
         ry="0.5"
         id="rect1704" />
      <rect
         style="fill:#e01b24"
         x="4"
         y="17"
         width="1"
         height="1"
         ry="0.5"
         id="rect1706" />
      <rect
         style="fill:#5e5c64"
         x="6"
         y="16"
         width="1"
         height="2"
         ry="0.5"
         id="rect1708" />
      <rect
         style="fill:#f6d32d"
         x="6"
         y="17"
         width="1"
         height="1"
         ry="0.5"
         id="rect1710" />
      <rect
         style="fill:#5e5c64"
         x="4"
         y="22"
         width="1"
         height="2"
         ry="0.5"
         id="rect1712" />
      <rect
         style="fill:#f6d32d"
         x="4"
         y="23"
         width="1"
         height="1"
         ry="0.5"
         id="rect1714" />
      <rect
         style="fill:#5e5c64"
         x="6"
         y="22"
         width="1"
         height="2"
         ry="0.5"
         id="rect1716" />
      <rect
         style="fill:#33d17a"
         x="6"
         y="23"
         width="1"
         height="1"
         ry="0.5"
         id="rect1718" />
      <rect
         style="fill:#3d3846"
         x="15"
         y="11"
         width="1"
         height="2"
         id="rect1720" />
      <rect
         style="fill:#241f31"
         x="15"
         y="10"
         width="1"
         height="1"
         id="rect1722" />
      <rect
         style="fill:#3d3846"
         x="17"
         y="11"
         width="1"
         height="2"
         id="rect1724" />
      <rect
         style="fill:#241f31"
         x="17"
         y="10"
         width="1"
         height="1"
         id="rect1726" />
      <rect
         style="fill:#3d3846"
         x="19"
         y="11"
         width="1"
         height="2"
         id="rect1728" />
      <rect
         style="fill:#241f31"
         x="19"
         y="10"
         width="1"
         height="1"
         id="rect1730" />
      <rect
         style="fill:#3d3846"
         x="21"
         y="11"
         width="1"
         height="2"
         id="rect1732" />
      <rect
         style="fill:#241f31"
         x="21"
         y="10"
         width="1"
         height="1"
         id="rect1734" />
      <rect
         style="fill:#3d3846"
         x="23"
         y="11"
         width="1"
         height="2"
         id="rect1736" />
      <rect
         style="fill:#241f31"
         x="23"
         y="10"
         width="1"
         height="1"
         id="rect1738" />
      <rect
         style="fill:#3d3846"
         x="25"
         y="11"
         width="1"
         height="2"
         id="rect1740" />
      <rect
         style="fill:#241f31"
         x="25"
         y="10"
         width="1"
         height="1"
         id="rect1742" />
      <rect
         style="fill:#3d3846"
         x="27"
         y="11"
         width="1"
         height="2"
         id="rect1744" />
      <rect
         style="fill:#241f31"
         x="27"
         y="10"
         width="1"
         height="1"
         id="rect1746" />
      <rect
         style="fill:#3d3846"
         x="15"
         y="5"
         width="1"
         height="2"
         id="rect1748" />
      <rect
         style="fill:#241f31"
         x="15"
         y="4"
         width="1"
         height="1"
         id="rect1750" />
      <rect
         style="fill:#3d3846"
         x="17"
         y="5"
         width="1"
         height="2"
         id="rect1752" />
      <rect
         style="fill:#241f31"
         x="17"
         y="4"
         width="1"
         height="1"
         id="rect1754" />
      <rect
         style="fill:#3d3846"
         x="19"
         y="5"
         width="1"
         height="2"
         id="rect1756" />
      <rect
         style="fill:#241f31"
         x="19"
         y="4"
         width="1"
         height="1"
         id="rect1758" />
      <rect
         style="fill:#3d3846"
         x="21"
         y="5"
         width="1"
         height="2"
         id="rect1760" />
      <rect
         style="fill:#241f31"
         x="21"
         y="4"
         width="1"
         height="1"
         id="rect1762" />
      <rect
         style="fill:#3d3846"
         x="23"
         y="5"
         width="1"
         height="2"
         id="rect1764" />
      <rect
         style="fill:#241f31"
         x="23"
         y="4"
         width="1"
         height="1"
         id="rect1766" />
      <rect
         style="fill:#3d3846"
         x="25"
         y="5"
         width="1"
         height="2"
         id="rect1768" />
      <rect
         style="fill:#241f31"
         x="25"
         y="4"
         width="1"
         height="1"
         id="rect1770" />
      <rect
         style="fill:#3d3846"
         x="27"
         y="5"
         width="1"
         height="2"
         id="rect1772" />
      <rect
         style="fill:#241f31"
         x="27"
         y="4"
         width="1"
         height="1"
         id="rect1774" />
      <rect
         style="fill:#3d3846"
         x="15"
         y="17"
         width="1"
         height="2"
         id="rect1776" />
      <rect
         style="fill:#241f31"
         x="15"
         y="16"
         width="1"
         height="1"
         id="rect1778" />
      <rect
         style="fill:#3d3846"
         x="17"
         y="17"
         width="1"
         height="2"
         id="rect1780" />
      <rect
         style="fill:#241f31"
         x="17"
         y="16"
         width="1"
         height="1"
         id="rect1782" />
      <rect
         style="fill:#3d3846"
         x="19"
         y="17"
         width="1"
         height="2"
         id="rect1784" />
      <rect
         style="fill:#241f31"
         x="19"
         y="16"
         width="1"
         height="1"
         id="rect1786" />
      <rect
         style="fill:#3d3846"
         x="21"
         y="17"
         width="1"
         height="2"
         id="rect1788" />
      <rect
         style="fill:#241f31"
         x="21"
         y="16"
         width="1"
         height="1"
         id="rect1790" />
      <rect
         style="fill:#3d3846"
         x="23"
         y="17"
         width="1"
         height="2"
         id="rect1792" />
      <rect
         style="fill:#241f31"
         x="23"
         y="16"
         width="1"
         height="1"
         id="rect1794" />
      <rect
         style="fill:#3d3846"
         x="25"
         y="17"
         width="1"
         height="2"
         id="rect1796" />
      <rect
         style="fill:#241f31"
         x="25"
         y="16"
         width="1"
         height="1"
         id="rect1798" />
      <rect
         style="fill:#3d3846"
         x="27"
         y="17"
         width="1"
         height="2"
         id="rect1800" />
      <rect
         style="fill:#241f31"
         x="27"
         y="16"
         width="1"
         height="1"
         id="rect1802" />
      <rect
         style="fill:#3d3846"
         x="15"
         y="23"
         width="1"
         height="2"
         id="rect1804" />
      <rect
         style="fill:#241f31"
         x="15"
         y="22"
         width="1"
         height="1"
         id="rect1806" />
      <rect
         style="fill:#3d3846"
         x="17"
         y="23"
         width="1"
         height="2"
         id="rect1808" />
      <rect
         style="fill:#241f31"
         x="17"
         y="22"
         width="1"
         height="1"
         id="rect1810" />
      <rect
         style="fill:#3d3846"
         x="19"
         y="23"
         width="1"
         height="2"
         id="rect1812" />
      <rect
         style="fill:#241f31"
         x="19"
         y="22"
         width="1"
         height="1"
         id="rect1814" />
      <rect
         style="fill:#3d3846"
         x="21"
         y="23"
         width="1"
         height="2"
         id="rect1816" />
      <rect
         style="fill:#241f31"
         x="21"
         y="22"
         width="1"
         height="1"
         id="rect1818" />
      <rect
         style="fill:#3d3846"
         x="23"
         y="23"
         width="1"
         height="2"
         id="rect1820" />
      <rect
         style="fill:#241f31"
         x="23"
         y="22"
         width="1"
         height="1"
         id="rect1822" />
      <rect
         style="fill:#3d3846"
         x="25"
         y="23"
         width="1"
         height="2"
         id="rect1824" />
      <rect
         style="fill:#241f31"
         x="25"
         y="22"
         width="1"
         height="1"
         id="rect1826" />
      <rect
         style="fill:#3d3846"
         x="27"
         y="23"
         width="1"
         height="2"
         id="rect1828" />
      <rect
         style="fill:#241f31"
         x="27"
         y="22"
         width="1"
         height="1"
         id="rect1830" />
    </g>
    <path
       id="path1933-6"
       d="m 128,-143 a 64,64 0 0 0 -64,64 64,64 0 0 0 64,64 64,64 0 0 0 64,-64 64,64 0 0 0 -64,-64 z"
       style="opacity:1;fill:#deddda;fill-opacity:1;stroke:none;stroke-width:8;stroke-linecap:round;stroke-linejoin:round;stroke-miterlimit:4;stroke-dasharray:none;stroke-opacity:1" />
    <path
       id="path1933"
       transform="matrix(2,0,0,2,0,-207)"
       d="M 64 28 A 32 32 0 0 0 32 60 A 32 32 0 0 0 64 92 A 32 32 0 0 0 96 60 A 32 32 0 0 0 64 28 z "
       style="opacity:1;fill:#f6f5f4;fill-opacity:1;stroke:none;stroke-width:4;stroke-linecap:round;stroke-linejoin:round;stroke-miterlimit:4;stroke-dasharray:none;stroke-opacity:1" />
    <path
       id="path1955"
       transform="matrix(2,0,0,2,0,-207)"
       d="M 72 37.400391 L 72 46.160156 A 16 16 0 0 1 80 60 A 16 16 0 0 1 64 76 A 16 16 0 0 1 48 60 A 16 16 0 0 1 56 46.166016 L 56 37.404297 A 24 24 0 0 0 40 60 A 24 24 0 0 0 64 84 A 24 24 0 0 0 88 60 A 24 24 0 0 0 72 37.400391 z "
       style="opacity:1;fill:#e01b24;fill-opacity:1;stroke:none;stroke-width:4;stroke-linecap:round;stroke-linejoin:round;stroke-miterlimit:4;stroke-dasharray:none;stroke-opacity:1" />
    <rect
       ry="8"
       y="-135"
       x="120"
       height="48"
       width="16"
       id="rect1963"
       style="opacity:1;fill:#e01b24;fill-opacity:1;stroke:none;stroke-width:8;stroke-linecap:round;stroke-linejoin:round;stroke-miterlimit:4;stroke-dasharray:none;stroke-opacity:1" />
  </g>
</svg>
